HIERARCHY
ROOT hip
{
  OFFSET 0 0 0
  CHANNELS 6 Xposition Yposition Zposition Zrotation Yrotation Xrotation
  JOINT abdomen
  {
    OFFSET 0 20.6881 -0.73152
    CHANNELS 3 Zrotation Xrotation Yrotation
    JOINT chest
    {
      OFFSET 0 11.7043 -0.48768
      CHANNELS 3 Zrotation Xrotation Yrotation
      JOINT neck
      {
        OFFSET 0 22.1894 -2.19456
        CHANNELS 3 Zrotation Xrotation Yrotation
        JOINT head
        {
          OFFSET -0.24384 7.07133 1.2192
          CHANNELS 3 Zrotation Xrotation Yrotation
          JOINT leftEye
          {
            OFFSET 4.14528 8.04674 8.04672
            CHANNELS 3 Zrotation Xrotation Yrotation
            End Site
            {
              OFFSET 1 0 0
            }
          }
          JOINT rightEye
          {
            OFFSET -3.6576 8.04674 8.04672
            CHANNELS 3 Zrotation Xrotation Yrotation
            End Site
            {
              OFFSET 1 0 0
            }
          }
        }
      }
      JOINT rCollar
      {
        OFFSET -2.68224 19.2634 -4.8768
        CHANNELS 3 Zrotation Xrotation Yrotation
        JOINT rShldr
        {
          OFFSET -8.77824 -1.95073 1.46304
          CHANNELS 3 Zrotation Xrotation Yrotation
          JOINT rForeArm
          {
            OFFSET -28.1742 -1.7115 0.48768
            CHANNELS 3 Zrotation Xrotation Yrotation
            JOINT rHand
            {
              OFFSET -22.5879 0.773209 7.07136
              CHANNELS 3 Zrotation Xrotation Yrotation
              JOINT rThumb1
              {
                OFFSET -1.2192 -0.487915 3.41376
                CHANNELS 3 Zrotation Xrotation Yrotation
                JOINT rThumb2
                {
                  OFFSET -3.37035 -0.52449 3.41376
                  CHANNELS 3 Zrotation Xrotation Yrotation
                  End Site
                  {
                    OFFSET -1.78271 -1.18214 1.43049
                  }
                }
              }
              JOINT rIndex1
              {
                OFFSET -7.75947 0.938293 5.60832
                CHANNELS 3 Zrotation Xrotation Yrotation
                JOINT rIndex2
                {
                  OFFSET -2.54057 -0.884171 1.56538
                  CHANNELS 3 Zrotation Xrotation Yrotation
                  End Site
                  {
                    OFFSET -1.62519 -0.234802 1.16502
                  }
                }
              }
              JOINT rMid1
              {
                OFFSET -8.24714 1.18213 3.41376
                CHANNELS 3 Zrotation Xrotation Yrotation
                JOINT rMid2
                {
                  OFFSET -3.10165 -0.590103 1.0647
                  CHANNELS 3 Zrotation Xrotation Yrotation
                  End Site
                  {
                    OFFSET -2.48547 -0.328903 0.83742
                  }
                }
              }
              JOINT rRing1
              {
                OFFSET -8.82822 0.546677 1.51678
                CHANNELS 3 Zrotation Xrotation Yrotation
                JOINT rRing2
                {
                  OFFSET -2.60934 -0.819778 -0.0198488
                  CHANNELS 3 Zrotation Xrotation Yrotation
                  End Site
                  {
                    OFFSET -2.33842 -0.294052 0.168128
                  }
                }
              }
              JOINT rPinky1
              {
                OFFSET -8.27202 -0.0477905 -0.4584
                CHANNELS 3 Zrotation Xrotation Yrotation
                JOINT rPinky2
                {
                  OFFSET -1.82734 -0.647385 -0.700984
                  CHANNELS 3 Zrotation Xrotation Yrotation
                  End Site
                  {
                    OFFSET -1.69225 -0.51767 -0.607171
                  }
                }
              }
            }
          }
        }
      }
      JOINT lCollar
      {
        OFFSET 2.68224 19.2634 -4.8768
        CHANNELS 3 Zrotation Xrotation Yrotation
        JOINT lShldr
        {
          OFFSET 8.77824 -1.95073 1.46304
          CHANNELS 3 Zrotation Xrotation Yrotation
          JOINT lForeArm
          {
            OFFSET 28.1742 -1.7115 0.48768
            CHANNELS 3 Zrotation Xrotation Yrotation
            JOINT lHand
            {
              OFFSET 22.5879 0.773209 7.07136
              CHANNELS 3 Zrotation Xrotation Yrotation
              JOINT lThumb1
              {
                OFFSET 1.2192 -0.487915 3.41376
                CHANNELS 3 Zrotation Xrotation Yrotation
                JOINT lThumb2
                {
                  OFFSET 3.37035 -0.52449 3.41376
                  CHANNELS 3 Zrotation Xrotation Yrotation
                  End Site
                  {
                    OFFSET 1.78271 -1.18214 1.43049
                  }
                }
              }
              JOINT lIndex1
              {
                OFFSET 7.75947 0.938293 5.60832
                CHANNELS 3 Zrotation Xrotation Yrotation
                JOINT lIndex2
                {
                  OFFSET 2.54057 -0.884171 1.56538
                  CHANNELS 3 Zrotation Xrotation Yrotation
                  End Site
                  {
                    OFFSET 1.62519 -0.234802 1.16502
                  }
                }
              }
              JOINT lMid1
              {
                OFFSET 8.24714 1.18213 3.41376
                CHANNELS 3 Zrotation Xrotation Yrotation
                JOINT lMid2
                {
                  OFFSET 3.10165 -0.590103 1.0647
                  CHANNELS 3 Zrotation Xrotation Yrotation
                  End Site
                  {
                    OFFSET 2.48547 -0.328903 0.83742
                  }
                }
              }
              JOINT lRing1
              {
                OFFSET 8.82822 0.546677 1.51678
                CHANNELS 3 Zrotation Xrotation Yrotation
                JOINT lRing2
                {
                  OFFSET 2.60934 -0.819778 -0.0198488
                  CHANNELS 3 Zrotation Xrotation Yrotation
                  End Site
                  {
                    OFFSET 2.33842 -0.294052 0.168128
                  }
                }
              }
              JOINT lPinky1
              {
                OFFSET 8.27202 -0.0477905 -0.4584
                CHANNELS 3 Zrotation Xrotation Yrotation
                JOINT lPinky2
                {
                  OFFSET 1.82734 -0.647385 -0.700984
                  CHANNELS 3 Zrotation Xrotation Yrotation
                  End Site
                  {
                    OFFSET 1.69225 -0.51767 -0.607171
                  }
                }
              }
            }
          }
        }
      }
    }
  }
  JOINT rButtock
  {
    OFFSET -8.77824 4.35084 1.2192
    CHANNELS 3 Zrotation Xrotation Yrotation
    JOINT rThigh
    {
      OFFSET 0 -1.70687 -2.19456
      CHANNELS 3 Zrotation Xrotation Yrotation
      JOINT rShin
      {
        OFFSET 0 -36.8199 0.73152
        CHANNELS 3 Zrotation Xrotation Yrotation
        JOINT rFoot
        {
          OFFSET 0.73152 -45.1104 -5.12064
          CHANNELS 3 Zrotation Xrotation Yrotation
          End Site
          {
            OFFSET -1.1221 -3.69964 12.103
          }
        }
      }
    }
  }
  JOINT lButtock
  {
    OFFSET 8.77824 4.35084 1.2192
    CHANNELS 3 Zrotation Xrotation Yrotation
    JOINT lThigh
    {
      OFFSET 0 -1.70687 -2.19456
      CHANNELS 3 Zrotation Xrotation Yrotation
      JOINT lShin
      {
        OFFSET 0 -36.8199 0.73152
        CHANNELS 3 Zrotation Xrotation Yrotation
        JOINT lFoot
        {
          OFFSET -0.73152 -45.1104 -5.12064
          CHANNELS 3 Zrotation Xrotation Yrotation
          End Site
          {
            OFFSET 1.1221 -3.69964 12.103
          }
        }
      }
    }
  }
}
MOTION
Frames:	4
Frame Time:	0.00833333
-4.79694 84.8033 -28.7945 0.0 0.0 0.0 -0.305087 -0.00406097 -0.00879774 -0.0843766 -0.00666553 -0.0146211 9.55983e-15 -7.95139e-16 4.65902e-17 2.86126e-14 3.18055e-15 1.3977e-16 -0.0 0.0 0.0 -0.0 0.0 0.0 4.91876e-15 1.16475e-18 2.48481e-16 1.01779e-13 4.96962e-17 1.59028e-15 1.73136e-12 -5.15051e-13 6.36111e-15 1.98005e-11 5.33588e-13 1.145e-13 4.67039e-11 4.16428e-14 2.79889e-13 8.06469e-11 7.31528e-14 4.72312e-13 4.671e-11 4.21423e-14 2.73528e-13 7.73091 5.47488 0.417314 4.67038e-11 4.14466e-14 2.83069e-13 2.90554 0.965183 0.102902 4.67079e-11 4.14466e-14 2.79094e-13 10.2786 0.731801 0.0259123 4.66965e-11 4.41302e-14 2.8943e-13 2.22167 -0.733487 -0.20892 4.72261e-15 1.94126e-18 -1.98785e-16 9.9054e-14 5.59082e-17 1.98785e-16 1.72818e-12 5.19623e-13 0.0 1.97974e-11 -5.08814e-13 1.46306e-13 4.66974e-11 2.47203e-14 2.83069e-13 8.06481e-11 3.81667e-14 4.8742e-13 4.66953e-11 2.50469e-14 2.8943e-13 -7.73091 5.47488 -0.417314 4.66983e-11 2.41523e-14 2.83069e-13 -2.90554 0.965183 -0.102902 4.66914e-11 2.46493e-14 2.81479e-13 -10.2786 0.731801 -0.0259123 4.67049e-11 2.62396e-14 2.70347e-13 -2.22167 -0.733487 0.20892 -2.03217e-16 0.0 -3.88251e-19 0.199387 -2.70344 -0.028872 -0.00656367 -0.653369 -0.0573644 -0.430007 3.35781 0.115505 2.03217e-16 0.0 3.88251e-19 -0.667228 -3.93836 0.0583938 0.00310858 1.58344 0.0241663 0.437788 2.35596 -0.0966875
-5.99875 82.212 -31.0538 -3.884 -2.0348 11.9926 2.10997 -4.03691 -0.7531 -0.697501 -1.37657 -0.33548 0.375231 0.302247 -0.748307 -1.78245 4.78862 -1.36118 -0.0 0.0 0.0 -0.0 0.0 0.0 7.15788e-14 -2.02878e-14 2.62054e-14 20.3823 7.69047 -1.01955 -3.49209 -1.46518 5.57919 0.052031 5.0654 0.701897 -7.0074e-10 8.13453e-10 -3.0404e-10 -1.21437e-09 1.40278e-09 -5.13522e-10 -7.00734e-10 8.13453e-10 -3.04048e-10 7.73091 5.47488 0.417314 -7.0074e-10 8.13451e-10 -3.04039e-10 2.90554 0.965183 0.102902 -7.00736e-10 8.13451e-10 -3.04042e-10 10.2786 0.731801 0.0259123 -7.00747e-10 8.13454e-10 -3.04031e-10 2.22167 -0.733487 -0.20892 7.14647e-14 -2.02865e-14 2.58715e-14 -22.9471 7.50773 3.78951 5.59671 -2.89411 -8.32711 -0.0133452 2.56971 -0.35985 -4.26896e-10 -9.2899e-10 -5.52203e-10 -7.41874e-10 -1.60684e-09 -9.51171e-10 -4.269e-10 -9.2899e-10 -5.52198e-10 -7.73091 5.47488 -0.417314 -4.26895e-10 -9.28989e-10 -5.52201e-10 -2.90554 0.965183 -0.102902 -4.26902e-10 -9.28988e-10 -5.52203e-10 -10.2786 0.731801 -0.0259123 -4.26889e-10 -9.28987e-10 -5.52213e-10 -2.22167 -0.733487 0.20892 -2.03217e-16 0.0 -3.88251e-19 2.23108 -8.52162 1.06563 0.0224181 7.02044 0.08883 -0.806094 -1.0852 -3.73724 2.03217e-16 0.0 3.88251e-19 0.853234 -10.5159 -2.56301 -0.0282555 10.2608 -0.155302 1.05583 -2.49906 4.51714
-5.96059 82.2262 -30.9409 -3.9027 -2.0674 11.9368 4.55384 -8.28995 -1.54725 -1.3669 -2.82604 -0.674103 0.775831 0.61672 -1.54415 -3.4098 9.83732 -2.84137 -0.0 0.0 0.0 -0.0 0.0 0.0 1.43947e-13 -4.40307e-14 5.54609e-14 42.2344 15.8158 -2.15426 -6.87046 -2.96485 11.4815 -0.0300818 10.4341 1.46468 -1.53451e-09 1.70919e-09 -6.24914e-10 -2.65874e-09 2.94721e-09 -1.05476e-09 -1.5345e-09 1.70919e-09 -6.24925e-10 7.73091 5.47488 0.417314 -1.53451e-09 1.70919e-09 -6.24917e-10 2.90554 0.965183 0.102902 -1.5345e-09 1.70919e-09 -6.24919e-10 10.2786 0.731801 0.0259123 -1.53451e-09 1.70919e-09 -6.24906e-10 2.22167 -0.733487 -0.20892 1.43921e-13 -4.40289e-14 5.52497e-14 -48.3267 15.3577 8.015 10.6235 -5.76264 -17.22 0.00776604 5.26436 -0.739659 -9.35813e-10 -1.94376e-09 -1.16303e-09 -1.62588e-09 -3.36219e-09 -2.0035e-09 -9.35819e-10 -1.94376e-09 -1.16303e-09 -7.73091 5.47488 -0.417314 -9.35811e-10 -1.94376e-09 -1.16303e-09 -2.90554 0.965183 -0.102902 -9.35819e-10 -1.94376e-09 -1.16303e-09 -10.2786 0.731801 -0.0259123 -9.35806e-10 -1.94376e-09 -1.16304e-09 -2.22167 -0.733487 0.20892 -2.03217e-16 0.0 -3.88251e-19 4.6315 -14.6742 2.26288 0.00924003 15.134 0.250598 -1.85123 -5.73265 -7.835 2.03217e-16 0.0 3.88251e-19 1.78322 -17.4299 -5.49603 0.000919604 19.4436 -0.360599 2.56204 -7.54168 9.47026
-5.91953 82.2418 -30.8197 -3.9692 -2.0758 11.8542 6.61976 -12.0943 -2.28689 -1.96988 -4.11585 -0.979434 1.14937 0.906122 -2.24517 -4.64677 14.3329 -4.20025 -0.0 0.0 0.0 -0.0 0.0 0.0 2.04899e-13 -6.08658e-14 7.81193e-14 62.0281 23.0409 -3.29417 -9.63181 -4.22913 16.7791 -0.227599 15.1869 2.17341 -2.19563e-09 2.44028e-09 -9.12679e-10 -3.80442e-09 4.20819e-09 -1.54151e-09 -2.19562e-09 2.44027e-09 -9.12691e-10 7.73091 5.47488 0.417314 -2.19563e-09 2.44027e-09 -9.12684e-10 2.90554 0.965183 0.102902 -2.19562e-09 2.44027e-09 -9.12685e-10 10.2786 0.731801 0.0259123 -2.19563e-09 2.44027e-09 -9.12672e-10 2.22167 -0.733487 -0.20892 2.04949e-13 -6.08634e-14 7.80121e-14 -71.9986 22.1134 12.179 14.3351 -7.95027 -25.2082 0.0575452 7.70789 -1.0883 -1.37408e-09 -2.78702e-09 -1.65717e-09 -2.38692e-09 -4.82059e-09 -2.85449e-09 -1.37409e-09 -2.78702e-09 -1.65717e-09 -7.73091 5.47488 -0.417314 -1.37408e-09 -2.78702e-09 -1.65717e-09 -2.90554 0.965183 -0.102902 -1.37409e-09 -2.78701e-09 -1.65717e-09 -10.2786 0.731801 -0.0259123 -1.37408e-09 -2.78701e-09 -1.65718e-09 -2.22167 -0.733487 0.20892 -2.03217e-16 0.0 -3.88251e-19 6.99922 -20.1291 3.42894 -0.0444073 22.3676 0.410067 -3.35774 -9.77795 -11.6113 2.03217e-16 0.0 3.88251e-19 1.95034 -23.4767 -8.37385 0.0897922 27.6144 -0.57192 4.65378 -11.8776 14.0382
